<mxfile host="app.diagrams.net" modified="2021-05-20T07:06:05.632Z" agent="5.0 (Macintosh; Intel Mac OS X 10_15_7) AppleWebKit/605.1.15 (KHTML, like Gecko) Version/14.1 Safari/605.1.15" etag="j8j2lWVY6TcxHqMGEGEI" version="14.6.13" type="github">
  <diagram id="_gmvza0ySt1GJMW0rUwG" name="Arkkitehtuuri">
    <mxGraphModel dx="946" dy="664" grid="1" gridSize="10" guides="1" tooltips="1" connect="1" arrows="1" fold="1" page="1" pageScale="1" pageWidth="827" pageHeight="1169" math="0" shadow="0">
      <root>
        <mxCell id="0" />
        <mxCell id="1" parent="0" />
        <mxCell id="3ZayTrcRs9-UqB1efhbe-8" style="edgeStyle=orthogonalEdgeStyle;rounded=0;orthogonalLoop=1;jettySize=auto;html=1;exitX=0.5;exitY=0;exitDx=0;exitDy=0;exitPerimeter=0;entryX=0.5;entryY=1;entryDx=0;entryDy=0;startArrow=classic;startFill=1;" edge="1" parent="1" source="3ZayTrcRs9-UqB1efhbe-1" target="3ZayTrcRs9-UqB1efhbe-6">
          <mxGeometry relative="1" as="geometry" />
        </mxCell>
        <mxCell id="3ZayTrcRs9-UqB1efhbe-1" value="DB" style="shape=cylinder3;whiteSpace=wrap;html=1;boundedLbl=1;backgroundOutline=1;size=15;" vertex="1" parent="1">
          <mxGeometry x="160" y="390" width="60" height="80" as="geometry" />
        </mxCell>
        <mxCell id="3ZayTrcRs9-UqB1efhbe-2" value="Actor" style="shape=umlActor;verticalLabelPosition=bottom;verticalAlign=top;html=1;outlineConnect=0;" vertex="1" parent="1">
          <mxGeometry x="170" y="120" width="30" height="60" as="geometry" />
        </mxCell>
        <mxCell id="3ZayTrcRs9-UqB1efhbe-4" value="Actor" style="shape=umlActor;verticalLabelPosition=bottom;verticalAlign=top;html=1;outlineConnect=0;" vertex="1" parent="1">
          <mxGeometry x="240" y="120" width="30" height="60" as="geometry" />
        </mxCell>
        <mxCell id="3ZayTrcRs9-UqB1efhbe-5" value="Actor" style="shape=umlActor;verticalLabelPosition=bottom;verticalAlign=top;html=1;outlineConnect=0;" vertex="1" parent="1">
          <mxGeometry x="300" y="120" width="30" height="60" as="geometry" />
        </mxCell>
        <mxCell id="3ZayTrcRs9-UqB1efhbe-11" style="edgeStyle=orthogonalEdgeStyle;rounded=0;orthogonalLoop=1;jettySize=auto;html=1;exitX=1;exitY=0.5;exitDx=0;exitDy=0;startArrow=classic;startFill=1;" edge="1" parent="1" source="3ZayTrcRs9-UqB1efhbe-6" target="3ZayTrcRs9-UqB1efhbe-7">
          <mxGeometry relative="1" as="geometry" />
        </mxCell>
        <mxCell id="3ZayTrcRs9-UqB1efhbe-6" value="Backend" style="whiteSpace=wrap;html=1;aspect=fixed;" vertex="1" parent="1">
          <mxGeometry x="150" y="260" width="80" height="80" as="geometry" />
        </mxCell>
        <mxCell id="3ZayTrcRs9-UqB1efhbe-7" value="Frontend" style="rounded=1;whiteSpace=wrap;html=1;" vertex="1" parent="1">
          <mxGeometry x="370" y="270" width="120" height="60" as="geometry" />
        </mxCell>
      </root>
    </mxGraphModel>
  </diagram>
</mxfile>
